<svg width="560" height="30" viewBox="0 0 560 30" fill="none" xmlns="http://www.w3.org/2000/svg">
<g clip-path="url(#clip0_1_187)">
<g filter="url(#filter0_d_1_187)">
<path d="M0 4C0 1.79086 1.79086 0 4 0H87C89.2091 0 91 1.79086 91 4V26C91 28.2091 89.2091 30 87 30H4C1.79086 30 0 28.2091 0 26V4Z" fill="#2A2A2A"/>
</g>
<path d="M19.0581 15.5464H15.7764V19H14.7451V11.1797H19.5898V12.0283H15.7764V14.7031H19.0581V15.5464ZM21.749 19H20.7554V13.1885H21.749V19ZM20.6748 11.647C20.6748 11.4858 20.7231 11.3498 20.8198 11.2388C20.9201 11.1278 21.0669 11.0723 21.2603 11.0723C21.4536 11.0723 21.6004 11.1278 21.7007 11.2388C21.8009 11.3498 21.8511 11.4858 21.8511 11.647C21.8511 11.8081 21.8009 11.9424 21.7007 12.0498C21.6004 12.1572 21.4536 12.2109 21.2603 12.2109C21.0669 12.2109 20.9201 12.1572 20.8198 12.0498C20.7231 11.9424 20.6748 11.8081 20.6748 11.647ZM24.4238 19H23.4302V10.75H24.4238V19ZM28.4307 19.1074C27.6429 19.1074 27.002 18.8496 26.5078 18.334C26.0137 17.8148 25.7666 17.1219 25.7666 16.2554V16.0728C25.7666 15.4963 25.8758 14.9824 26.0942 14.5312C26.3162 14.0765 26.6242 13.722 27.0181 13.4678C27.4155 13.21 27.8452 13.0811 28.3071 13.0811C29.0627 13.0811 29.6499 13.3299 30.0688 13.8276C30.4878 14.3254 30.6973 15.0379 30.6973 15.9653V16.3789H26.7603C26.7746 16.9518 26.9411 17.4155 27.2598 17.77C27.582 18.1209 27.9902 18.2964 28.4844 18.2964C28.8353 18.2964 29.1325 18.2248 29.376 18.0815C29.6195 17.9383 29.8325 17.7485 30.0151 17.5122L30.6221 17.9849C30.1351 18.7332 29.4046 19.1074 28.4307 19.1074ZM28.3071 13.8975C27.9061 13.8975 27.5695 14.0443 27.2974 14.3379C27.0252 14.6279 26.8569 15.0361 26.7925 15.5625H29.7036V15.4873C29.675 14.9824 29.5389 14.5921 29.2954 14.3164C29.0519 14.0371 28.7225 13.8975 28.3071 13.8975ZM39.4897 16.1587C39.4897 17.0431 39.2874 17.7557 38.8828 18.2964C38.4782 18.8371 37.9303 19.1074 37.2393 19.1074C36.5339 19.1074 35.9788 18.8836 35.5742 18.436V21.2344H34.5806V13.1885H35.4883L35.5366 13.833C35.9412 13.3317 36.5034 13.0811 37.2231 13.0811C37.9214 13.0811 38.4728 13.3442 38.8774 13.8706C39.2856 14.397 39.4897 15.1292 39.4897 16.0674V16.1587ZM38.4961 16.0459C38.4961 15.3906 38.3564 14.8732 38.0771 14.4937C37.7979 14.1141 37.4147 13.9243 36.9277 13.9243C36.3262 13.9243 35.875 14.1911 35.5742 14.7246V17.5015C35.8714 18.0314 36.3262 18.2964 36.9385 18.2964C37.4147 18.2964 37.7925 18.1084 38.0718 17.7324C38.3547 17.3529 38.4961 16.7907 38.4961 16.0459ZM43.5664 14.0801C43.416 14.055 43.2531 14.0425 43.0776 14.0425C42.4259 14.0425 41.9837 14.32 41.751 14.875V19H40.7573V13.1885H41.7241L41.7402 13.8599C42.0661 13.3407 42.528 13.0811 43.126 13.0811C43.3193 13.0811 43.4661 13.1061 43.5664 13.1562V14.0801ZM46.7891 19.1074C46.0013 19.1074 45.3604 18.8496 44.8662 18.334C44.3721 17.8148 44.125 17.1219 44.125 16.2554V16.0728C44.125 15.4963 44.2342 14.9824 44.4526 14.5312C44.6746 14.0765 44.9826 13.722 45.3765 13.4678C45.7739 13.21 46.2036 13.0811 46.6655 13.0811C47.4211 13.0811 48.0083 13.3299 48.4272 13.8276C48.8462 14.3254 49.0557 15.0379 49.0557 15.9653V16.3789H45.1187C45.133 16.9518 45.2995 17.4155 45.6182 17.77C45.9404 18.1209 46.3486 18.2964 46.8428 18.2964C47.1937 18.2964 47.4909 18.2248 47.7344 18.0815C47.9779 17.9383 48.1909 17.7485 48.3735 17.5122L48.9805 17.9849C48.4935 18.7332 47.763 19.1074 46.7891 19.1074ZM46.6655 13.8975C46.2645 13.8975 45.9279 14.0443 45.6558 14.3379C45.3836 14.6279 45.2153 15.0361 45.1509 15.5625H48.062V15.4873C48.0334 14.9824 47.8973 14.5921 47.6538 14.3164C47.4103 14.0371 47.0809 13.8975 46.6655 13.8975ZM52.0527 17.6519L53.4922 13.1885H54.5073L52.4233 19H51.666L49.5605 13.1885H50.5757L52.0527 17.6519ZM56.543 19H55.5493V13.1885H56.543V19ZM55.4688 11.647C55.4688 11.4858 55.5171 11.3498 55.6138 11.2388C55.714 11.1278 55.8608 11.0723 56.0542 11.0723C56.2476 11.0723 56.3944 11.1278 56.4946 11.2388C56.5949 11.3498 56.645 11.4858 56.645 11.647C56.645 11.8081 56.5949 11.9424 56.4946 12.0498C56.3944 12.1572 56.2476 12.2109 56.0542 12.2109C55.8608 12.2109 55.714 12.1572 55.6138 12.0498C55.5171 11.9424 55.4688 11.8081 55.4688 11.647ZM60.5498 19.1074C59.762 19.1074 59.1211 18.8496 58.627 18.334C58.1328 17.8148 57.8857 17.1219 57.8857 16.2554V16.0728C57.8857 15.4963 57.995 14.9824 58.2134 14.5312C58.4354 14.0765 58.7433 13.722 59.1372 13.4678C59.5347 13.21 59.9644 13.0811 60.4263 13.0811C61.1818 13.0811 61.769 13.3299 62.188 13.8276C62.6069 14.3254 62.8164 15.0379 62.8164 15.9653V16.3789H58.8794C58.8937 16.9518 59.0602 17.4155 59.3789 17.77C59.7012 18.1209 60.1094 18.2964 60.6035 18.2964C60.9544 18.2964 61.2516 18.2248 61.4951 18.0815C61.7386 17.9383 61.9517 17.7485 62.1343 17.5122L62.7412 17.9849C62.2542 18.7332 61.5238 19.1074 60.5498 19.1074ZM60.4263 13.8975C60.0252 13.8975 59.6886 14.0443 59.4165 14.3379C59.1444 14.6279 58.9761 15.0361 58.9116 15.5625H61.8228V15.4873C61.7941 14.9824 61.658 14.5921 61.4146 14.3164C61.1711 14.0371 60.8416 13.8975 60.4263 13.8975ZM69.1167 17.6304L70.2339 13.1885H71.2275L69.5356 19H68.73L67.3174 14.5957L65.9424 19H65.1367L63.4502 13.1885H64.4385L65.5825 17.5391L66.936 13.1885H67.7363L69.1167 17.6304ZM75.6265 17.4585C75.6265 17.1899 75.5244 16.9823 75.3203 16.8354C75.1198 16.6851 74.7671 16.5562 74.2622 16.4487C73.7609 16.3413 73.3617 16.2124 73.0645 16.062C72.7708 15.9116 72.5524 15.7326 72.4092 15.5249C72.2695 15.3172 72.1997 15.0701 72.1997 14.7837C72.1997 14.3075 72.4002 13.9046 72.8013 13.5752C73.2059 13.2458 73.7215 13.0811 74.3481 13.0811C75.007 13.0811 75.5405 13.2511 75.9487 13.5913C76.3605 13.9315 76.5664 14.3665 76.5664 14.8965H75.5674C75.5674 14.6243 75.451 14.3898 75.2183 14.1929C74.9891 13.9959 74.6991 13.8975 74.3481 13.8975C73.9865 13.8975 73.7036 13.9762 73.4995 14.1338C73.2954 14.2913 73.1934 14.4972 73.1934 14.7515C73.1934 14.9914 73.2882 15.1722 73.478 15.2939C73.6678 15.4157 74.0098 15.5321 74.5039 15.6431C75.0016 15.7541 75.4045 15.8866 75.7124 16.0405C76.0203 16.1945 76.2477 16.3807 76.3945 16.5991C76.5449 16.814 76.6201 17.0771 76.6201 17.3887C76.6201 17.9079 76.4124 18.325 75.9971 18.6401C75.5817 18.9517 75.0428 19.1074 74.3804 19.1074C73.9149 19.1074 73.5031 19.0251 73.145 18.8604C72.7869 18.6956 72.5059 18.4665 72.3018 18.1729C72.1012 17.8757 72.001 17.5552 72.001 17.2114H72.9946C73.0125 17.5444 73.145 17.8094 73.3921 18.0063C73.6427 18.1997 73.9722 18.2964 74.3804 18.2964C74.7563 18.2964 75.0571 18.2212 75.2827 18.0708C75.5119 17.9168 75.6265 17.7127 75.6265 17.4585Z" fill="white"/>
<path d="M219.83 18.0801H223.873V19H218.699V10.4688H219.83V18.0801ZM226.164 19H225.08V12.6602H226.164V19ZM224.992 10.9785C224.992 10.8027 225.045 10.6543 225.15 10.5332C225.26 10.4121 225.42 10.3516 225.631 10.3516C225.842 10.3516 226.002 10.4121 226.111 10.5332C226.221 10.6543 226.275 10.8027 226.275 10.9785C226.275 11.1543 226.221 11.3008 226.111 11.418C226.002 11.5352 225.842 11.5938 225.631 11.5938C225.42 11.5938 225.26 11.5352 225.15 11.418C225.045 11.3008 224.992 11.1543 224.992 10.9785ZM231.596 17.3184C231.596 17.0254 231.484 16.7988 231.262 16.6387C231.043 16.4746 230.658 16.334 230.107 16.2168C229.561 16.0996 229.125 15.959 228.801 15.7949C228.48 15.6309 228.242 15.4355 228.086 15.209C227.934 14.9824 227.857 14.7129 227.857 14.4004C227.857 13.8809 228.076 13.4414 228.514 13.082C228.955 12.7227 229.518 12.543 230.201 12.543C230.92 12.543 231.502 12.7285 231.947 13.0996C232.396 13.4707 232.621 13.9453 232.621 14.5234H231.531C231.531 14.2266 231.404 13.9707 231.15 13.7559C230.9 13.541 230.584 13.4336 230.201 13.4336C229.807 13.4336 229.498 13.5195 229.275 13.6914C229.053 13.8633 228.941 14.0879 228.941 14.3652C228.941 14.627 229.045 14.8242 229.252 14.957C229.459 15.0898 229.832 15.2168 230.371 15.3379C230.914 15.459 231.354 15.6035 231.689 15.7715C232.025 15.9395 232.273 16.1426 232.434 16.3809C232.598 16.6152 232.68 16.9023 232.68 17.2422C232.68 17.8086 232.453 18.2637 232 18.6074C231.547 18.9473 230.959 19.1172 230.236 19.1172C229.729 19.1172 229.279 19.0273 228.889 18.8477C228.498 18.668 228.191 18.418 227.969 18.0977C227.75 17.7734 227.641 17.4238 227.641 17.0488H228.725C228.744 17.4121 228.889 17.7012 229.158 17.916C229.432 18.127 229.791 18.2324 230.236 18.2324C230.646 18.2324 230.975 18.1504 231.221 17.9863C231.471 17.8184 231.596 17.5957 231.596 17.3184ZM235.562 11.125V12.6602H236.746V13.498H235.562V17.4297C235.562 17.6836 235.615 17.875 235.721 18.0039C235.826 18.1289 236.006 18.1914 236.26 18.1914C236.385 18.1914 236.557 18.168 236.775 18.1211V19C236.49 19.0781 236.213 19.1172 235.943 19.1172C235.459 19.1172 235.094 18.9707 234.848 18.6777C234.602 18.3848 234.479 17.9688 234.479 17.4297V13.498H233.324V12.6602H234.479V11.125H235.562ZM243.086 17.5293L244.656 12.6602H245.764L243.49 19H242.664L240.367 12.6602H241.475L243.086 17.5293ZM247.984 19H246.9V12.6602H247.984V19ZM246.812 10.9785C246.812 10.8027 246.865 10.6543 246.971 10.5332C247.08 10.4121 247.24 10.3516 247.451 10.3516C247.662 10.3516 247.822 10.4121 247.932 10.5332C248.041 10.6543 248.096 10.8027 248.096 10.9785C248.096 11.1543 248.041 11.3008 247.932 11.418C247.822 11.5352 247.662 11.5938 247.451 11.5938C247.24 11.5938 247.08 11.5352 246.971 11.418C246.865 11.3008 246.812 11.1543 246.812 10.9785ZM252.355 19.1172C251.496 19.1172 250.797 18.8359 250.258 18.2734C249.719 17.707 249.449 16.9512 249.449 16.0059V15.8066C249.449 15.1777 249.568 14.6172 249.807 14.125C250.049 13.6289 250.385 13.2422 250.814 12.9648C251.248 12.6836 251.717 12.543 252.221 12.543C253.045 12.543 253.686 12.8145 254.143 13.3574C254.6 13.9004 254.828 14.6777 254.828 15.6895V16.1406H250.533C250.549 16.7656 250.73 17.2715 251.078 17.6582C251.43 18.041 251.875 18.2324 252.414 18.2324C252.797 18.2324 253.121 18.1543 253.387 17.998C253.652 17.8418 253.885 17.6348 254.084 17.377L254.746 17.8926C254.215 18.709 253.418 19.1172 252.355 19.1172ZM252.221 13.4336C251.783 13.4336 251.416 13.5938 251.119 13.9141C250.822 14.2305 250.639 14.6758 250.568 15.25H253.744V15.168C253.713 14.6172 253.564 14.1914 253.299 13.8906C253.033 13.5859 252.674 13.4336 252.221 13.4336ZM261.701 17.5059L262.92 12.6602H264.004L262.158 19H261.279L259.738 14.1953L258.238 19H257.359L255.52 12.6602H256.598L257.846 17.4062L259.322 12.6602H260.195L261.701 17.5059Z" fill="#666666"/>
<path d="M443.461 15.6602V19H442.336V10.4688H445.482C446.416 10.4688 447.146 10.707 447.674 11.1836C448.205 11.6602 448.471 12.291 448.471 13.0762C448.471 13.9043 448.211 14.543 447.691 14.9922C447.176 15.4375 446.436 15.6602 445.471 15.6602H443.461ZM443.461 14.7402H445.482C446.084 14.7402 446.545 14.5996 446.865 14.3184C447.186 14.0332 447.346 13.623 447.346 13.0879C447.346 12.5801 447.186 12.1738 446.865 11.8691C446.545 11.5645 446.105 11.4062 445.547 11.3945H443.461V14.7402ZM453.58 19C453.518 18.875 453.467 18.6523 453.428 18.332C452.924 18.8555 452.322 19.1172 451.623 19.1172C450.998 19.1172 450.484 18.9414 450.082 18.5898C449.684 18.2344 449.484 17.7852 449.484 17.2422C449.484 16.582 449.734 16.0703 450.234 15.707C450.738 15.3398 451.445 15.1562 452.355 15.1562H453.41V14.6582C453.41 14.2793 453.297 13.9785 453.07 13.7559C452.844 13.5293 452.51 13.416 452.068 13.416C451.682 13.416 451.357 13.5137 451.096 13.709C450.834 13.9043 450.703 14.1406 450.703 14.418H449.613C449.613 14.1016 449.725 13.7969 449.947 13.5039C450.174 13.207 450.479 12.9727 450.861 12.8008C451.248 12.6289 451.672 12.543 452.133 12.543C452.863 12.543 453.436 12.7266 453.85 13.0938C454.264 13.457 454.479 13.959 454.494 14.5996V17.5176C454.494 18.0996 454.568 18.5625 454.717 18.9062V19H453.58ZM451.781 18.1738C452.121 18.1738 452.443 18.0859 452.748 17.9102C453.053 17.7344 453.273 17.5059 453.41 17.2246V15.9238H452.561C451.232 15.9238 450.568 16.3125 450.568 17.0898C450.568 17.4297 450.682 17.6953 450.908 17.8867C451.135 18.0781 451.426 18.1738 451.781 18.1738ZM457.664 11.125V12.6602H458.848V13.498H457.664V17.4297C457.664 17.6836 457.717 17.875 457.822 18.0039C457.928 18.1289 458.107 18.1914 458.361 18.1914C458.486 18.1914 458.658 18.168 458.877 18.1211V19C458.592 19.0781 458.314 19.1172 458.045 19.1172C457.561 19.1172 457.195 18.9707 456.949 18.6777C456.703 18.3848 456.58 17.9688 456.58 17.4297V13.498H455.426V12.6602H456.58V11.125H457.664ZM461.203 13.4277C461.684 12.8379 462.309 12.543 463.078 12.543C464.418 12.543 465.094 13.2988 465.105 14.8105V19H464.021V14.8047C464.018 14.3477 463.912 14.0098 463.705 13.791C463.502 13.5723 463.184 13.4629 462.75 13.4629C462.398 13.4629 462.09 13.5566 461.824 13.7441C461.559 13.9316 461.352 14.1777 461.203 14.4824V19H460.119V10H461.203V13.4277ZM470.73 12.6602L470.766 13.457C471.25 12.8477 471.883 12.543 472.664 12.543C474.004 12.543 474.68 13.2988 474.691 14.8105V19H473.607V14.8047C473.604 14.3477 473.498 14.0098 473.291 13.791C473.088 13.5723 472.77 13.4629 472.336 13.4629C471.984 13.4629 471.676 13.5566 471.41 13.7441C471.145 13.9316 470.938 14.1777 470.789 14.4824V19H469.705V12.6602H470.73ZM480.24 19C480.178 18.875 480.127 18.6523 480.088 18.332C479.584 18.8555 478.982 19.1172 478.283 19.1172C477.658 19.1172 477.145 18.9414 476.742 18.5898C476.344 18.2344 476.145 17.7852 476.145 17.2422C476.145 16.582 476.395 16.0703 476.895 15.707C477.398 15.3398 478.105 15.1562 479.016 15.1562H480.07V14.6582C480.07 14.2793 479.957 13.9785 479.73 13.7559C479.504 13.5293 479.17 13.416 478.729 13.416C478.342 13.416 478.018 13.5137 477.756 13.709C477.494 13.9043 477.363 14.1406 477.363 14.418H476.273C476.273 14.1016 476.385 13.7969 476.607 13.5039C476.834 13.207 477.139 12.9727 477.521 12.8008C477.908 12.6289 478.332 12.543 478.793 12.543C479.523 12.543 480.096 12.7266 480.51 13.0938C480.924 13.457 481.139 13.959 481.154 14.5996V17.5176C481.154 18.0996 481.229 18.5625 481.377 18.9062V19H480.24ZM478.441 18.1738C478.781 18.1738 479.104 18.0859 479.408 17.9102C479.713 17.7344 479.934 17.5059 480.07 17.2246V15.9238H479.221C477.893 15.9238 477.229 16.3125 477.229 17.0898C477.229 17.4297 477.342 17.6953 477.568 17.8867C477.795 18.0781 478.086 18.1738 478.441 18.1738ZM484.852 17.5293L486.422 12.6602H487.529L485.256 19H484.43L482.133 12.6602H483.24L484.852 17.5293ZM489.75 19H488.666V12.6602H489.75V19ZM488.578 10.9785C488.578 10.8027 488.631 10.6543 488.736 10.5332C488.846 10.4121 489.006 10.3516 489.217 10.3516C489.428 10.3516 489.588 10.4121 489.697 10.5332C489.807 10.6543 489.861 10.8027 489.861 10.9785C489.861 11.1543 489.807 11.3008 489.697 11.418C489.588 11.5352 489.428 11.5938 489.217 11.5938C489.006 11.5938 488.846 11.5352 488.736 11.418C488.631 11.3008 488.578 11.1543 488.578 10.9785ZM491.232 15.7773C491.232 14.7891 491.461 14.0039 491.918 13.4219C492.375 12.8359 492.98 12.543 493.734 12.543C494.508 12.543 495.111 12.8164 495.545 13.3633L495.598 12.6602H496.588V18.8477C496.588 19.668 496.344 20.3145 495.855 20.7871C495.371 21.2598 494.719 21.4961 493.898 21.4961C493.441 21.4961 492.994 21.3984 492.557 21.2031C492.119 21.0078 491.785 20.7402 491.555 20.4004L492.117 19.75C492.582 20.3242 493.15 20.6113 493.822 20.6113C494.35 20.6113 494.76 20.4629 495.053 20.166C495.35 19.8691 495.498 19.4512 495.498 18.9121V18.3672C495.064 18.8672 494.473 19.1172 493.723 19.1172C492.98 19.1172 492.379 18.8184 491.918 18.2207C491.461 17.623 491.232 16.8086 491.232 15.7773ZM492.322 15.9004C492.322 16.6152 492.469 17.1777 492.762 17.5879C493.055 17.9941 493.465 18.1973 493.992 18.1973C494.676 18.1973 495.178 17.8867 495.498 17.2656V14.3711C495.166 13.7656 494.668 13.4629 494.004 13.4629C493.477 13.4629 493.064 13.668 492.768 14.0781C492.471 14.4883 492.322 15.0957 492.322 15.9004ZM502.143 19C502.08 18.875 502.029 18.6523 501.99 18.332C501.486 18.8555 500.885 19.1172 500.186 19.1172C499.561 19.1172 499.047 18.9414 498.645 18.5898C498.246 18.2344 498.047 17.7852 498.047 17.2422C498.047 16.582 498.297 16.0703 498.797 15.707C499.301 15.3398 500.008 15.1562 500.918 15.1562H501.973V14.6582C501.973 14.2793 501.859 13.9785 501.633 13.7559C501.406 13.5293 501.072 13.416 500.631 13.416C500.244 13.416 499.92 13.5137 499.658 13.709C499.396 13.9043 499.266 14.1406 499.266 14.418H498.176C498.176 14.1016 498.287 13.7969 498.51 13.5039C498.736 13.207 499.041 12.9727 499.424 12.8008C499.811 12.6289 500.234 12.543 500.695 12.543C501.426 12.543 501.998 12.7266 502.412 13.0938C502.826 13.457 503.041 13.959 503.057 14.5996V17.5176C503.057 18.0996 503.131 18.5625 503.279 18.9062V19H502.143ZM500.344 18.1738C500.684 18.1738 501.006 18.0859 501.311 17.9102C501.615 17.7344 501.836 17.5059 501.973 17.2246V15.9238H501.123C499.795 15.9238 499.131 16.3125 499.131 17.0898C499.131 17.4297 499.244 17.6953 499.471 17.8867C499.697 18.0781 499.988 18.1738 500.344 18.1738ZM506.227 11.125V12.6602H507.41V13.498H506.227V17.4297C506.227 17.6836 506.279 17.875 506.385 18.0039C506.49 18.1289 506.67 18.1914 506.924 18.1914C507.049 18.1914 507.221 18.168 507.439 18.1211V19C507.154 19.0781 506.877 19.1172 506.607 19.1172C506.123 19.1172 505.758 18.9707 505.512 18.6777C505.266 18.3848 505.143 17.9688 505.143 17.4297V13.498H503.988V12.6602H505.143V11.125H506.227ZM508.277 15.7715C508.277 15.1504 508.398 14.5918 508.641 14.0957C508.887 13.5996 509.227 13.2168 509.66 12.9473C510.098 12.6777 510.596 12.543 511.154 12.543C512.018 12.543 512.715 12.8418 513.246 13.4395C513.781 14.0371 514.049 14.832 514.049 15.8242V15.9004C514.049 16.5176 513.93 17.0723 513.691 17.5645C513.457 18.0527 513.119 18.4336 512.678 18.707C512.24 18.9805 511.736 19.1172 511.166 19.1172C510.307 19.1172 509.609 18.8184 509.074 18.2207C508.543 17.623 508.277 16.832 508.277 15.8477V15.7715ZM509.367 15.9004C509.367 16.6035 509.529 17.168 509.854 17.5938C510.182 18.0195 510.619 18.2324 511.166 18.2324C511.717 18.2324 512.154 18.0176 512.479 17.5879C512.803 17.1543 512.965 16.5488 512.965 15.7715C512.965 15.0762 512.799 14.5137 512.467 14.084C512.139 13.6504 511.701 13.4336 511.154 13.4336C510.619 13.4336 510.188 13.6465 509.859 14.0723C509.531 14.498 509.367 15.1074 509.367 15.9004ZM518.473 13.6328C518.309 13.6055 518.131 13.5918 517.939 13.5918C517.229 13.5918 516.746 13.8945 516.492 14.5V19H515.408V12.6602H516.463L516.48 13.3926C516.836 12.8262 517.34 12.543 517.992 12.543C518.203 12.543 518.363 12.5703 518.473 12.625V13.6328Z" fill="#666666"/>
<path d="M302.365 10.4688L305.154 17.4297L307.943 10.4688H309.402V19H308.277V15.6777L308.383 12.0918L305.582 19H304.721L301.926 12.1094L302.037 15.6777V19H300.912V10.4688H302.365ZM315.133 18.373C314.711 18.8691 314.092 19.1172 313.275 19.1172C312.6 19.1172 312.084 18.9219 311.729 18.5312C311.377 18.1367 311.199 17.5547 311.195 16.7852V12.6602H312.279V16.7559C312.279 17.7168 312.67 18.1973 313.451 18.1973C314.279 18.1973 314.83 17.8887 315.104 17.2715V12.6602H316.188V19H315.156L315.133 18.373ZM319.018 19H317.934V10H319.018V19ZM322.229 11.125V12.6602H323.412V13.498H322.229V17.4297C322.229 17.6836 322.281 17.875 322.387 18.0039C322.492 18.1289 322.672 18.1914 322.926 18.1914C323.051 18.1914 323.223 18.168 323.441 18.1211V19C323.156 19.0781 322.879 19.1172 322.609 19.1172C322.125 19.1172 321.76 18.9707 321.514 18.6777C321.268 18.3848 321.145 17.9688 321.145 17.4297V13.498H319.99V12.6602H321.145V11.125H322.229ZM325.861 19H324.777V12.6602H325.861V19ZM324.689 10.9785C324.689 10.8027 324.742 10.6543 324.848 10.5332C324.957 10.4121 325.117 10.3516 325.328 10.3516C325.539 10.3516 325.699 10.4121 325.809 10.5332C325.918 10.6543 325.973 10.8027 325.973 10.9785C325.973 11.1543 325.918 11.3008 325.809 11.418C325.699 11.5352 325.539 11.5938 325.328 11.5938C325.117 11.5938 324.957 11.5352 324.848 11.418C324.742 11.3008 324.689 11.1543 324.689 10.9785ZM334.27 17.3184C334.27 17.0254 334.158 16.7988 333.936 16.6387C333.717 16.4746 333.332 16.334 332.781 16.2168C332.234 16.0996 331.799 15.959 331.475 15.7949C331.154 15.6309 330.916 15.4355 330.76 15.209C330.607 14.9824 330.531 14.7129 330.531 14.4004C330.531 13.8809 330.75 13.4414 331.188 13.082C331.629 12.7227 332.191 12.543 332.875 12.543C333.594 12.543 334.176 12.7285 334.621 13.0996C335.07 13.4707 335.295 13.9453 335.295 14.5234H334.205C334.205 14.2266 334.078 13.9707 333.824 13.7559C333.574 13.541 333.258 13.4336 332.875 13.4336C332.48 13.4336 332.172 13.5195 331.949 13.6914C331.727 13.8633 331.615 14.0879 331.615 14.3652C331.615 14.627 331.719 14.8242 331.926 14.957C332.133 15.0898 332.506 15.2168 333.045 15.3379C333.588 15.459 334.027 15.6035 334.363 15.7715C334.699 15.9395 334.947 16.1426 335.107 16.3809C335.271 16.6152 335.354 16.9023 335.354 17.2422C335.354 17.8086 335.127 18.2637 334.674 18.6074C334.221 18.9473 333.633 19.1172 332.91 19.1172C332.402 19.1172 331.953 19.0273 331.562 18.8477C331.172 18.668 330.865 18.418 330.643 18.0977C330.424 17.7734 330.314 17.4238 330.314 17.0488H331.398C331.418 17.4121 331.562 17.7012 331.832 17.916C332.105 18.127 332.465 18.2324 332.91 18.2324C333.32 18.2324 333.648 18.1504 333.895 17.9863C334.145 17.8184 334.27 17.5957 334.27 17.3184ZM339.396 19.1172C338.537 19.1172 337.838 18.8359 337.299 18.2734C336.76 17.707 336.49 16.9512 336.49 16.0059V15.8066C336.49 15.1777 336.609 14.6172 336.848 14.125C337.09 13.6289 337.426 13.2422 337.855 12.9648C338.289 12.6836 338.758 12.543 339.262 12.543C340.086 12.543 340.727 12.8145 341.184 13.3574C341.641 13.9004 341.869 14.6777 341.869 15.6895V16.1406H337.574C337.59 16.7656 337.771 17.2715 338.119 17.6582C338.471 18.041 338.916 18.2324 339.455 18.2324C339.838 18.2324 340.162 18.1543 340.428 17.998C340.693 17.8418 340.926 17.6348 341.125 17.377L341.787 17.8926C341.256 18.709 340.459 19.1172 339.396 19.1172ZM339.262 13.4336C338.824 13.4336 338.457 13.5938 338.16 13.9141C337.863 14.2305 337.68 14.6758 337.609 15.25H340.785V15.168C340.754 14.6172 340.605 14.1914 340.34 13.8906C340.074 13.5859 339.715 13.4336 339.262 13.4336ZM344.307 19H343.223V10H344.307V19ZM348.678 19.1172C347.818 19.1172 347.119 18.8359 346.58 18.2734C346.041 17.707 345.771 16.9512 345.771 16.0059V15.8066C345.771 15.1777 345.891 14.6172 346.129 14.125C346.371 13.6289 346.707 13.2422 347.137 12.9648C347.57 12.6836 348.039 12.543 348.543 12.543C349.367 12.543 350.008 12.8145 350.465 13.3574C350.922 13.9004 351.15 14.6777 351.15 15.6895V16.1406H346.855C346.871 16.7656 347.053 17.2715 347.4 17.6582C347.752 18.041 348.197 18.2324 348.736 18.2324C349.119 18.2324 349.443 18.1543 349.709 17.998C349.975 17.8418 350.207 17.6348 350.406 17.377L351.068 17.8926C350.537 18.709 349.74 19.1172 348.678 19.1172ZM348.543 13.4336C348.105 13.4336 347.738 13.5938 347.441 13.9141C347.145 14.2305 346.961 14.6758 346.891 15.25H350.066V15.168C350.035 14.6172 349.887 14.1914 349.621 13.8906C349.355 13.5859 348.996 13.4336 348.543 13.4336ZM354.953 18.2324C355.34 18.2324 355.678 18.1152 355.967 17.8809C356.256 17.6465 356.416 17.3535 356.447 17.002H357.473C357.453 17.3652 357.328 17.7109 357.098 18.0391C356.867 18.3672 356.559 18.6289 356.172 18.8242C355.789 19.0195 355.383 19.1172 354.953 19.1172C354.09 19.1172 353.402 18.8301 352.891 18.2559C352.383 17.6777 352.129 16.8887 352.129 15.8887V15.707C352.129 15.0898 352.242 14.541 352.469 14.0605C352.695 13.5801 353.02 13.207 353.441 12.9414C353.867 12.6758 354.369 12.543 354.947 12.543C355.658 12.543 356.248 12.7559 356.717 13.1816C357.189 13.6074 357.441 14.1602 357.473 14.8398H356.447C356.416 14.4297 356.26 14.0938 355.979 13.832C355.701 13.5664 355.357 13.4336 354.947 13.4336C354.396 13.4336 353.969 13.6328 353.664 14.0312C353.363 14.4258 353.213 14.998 353.213 15.748V15.9531C353.213 16.6836 353.363 17.2461 353.664 17.6406C353.965 18.0352 354.395 18.2324 354.953 18.2324ZM360.162 11.125V12.6602H361.346V13.498H360.162V17.4297C360.162 17.6836 360.215 17.875 360.32 18.0039C360.426 18.1289 360.605 18.1914 360.859 18.1914C360.984 18.1914 361.156 18.168 361.375 18.1211V19C361.09 19.0781 360.812 19.1172 360.543 19.1172C360.059 19.1172 359.693 18.9707 359.447 18.6777C359.201 18.3848 359.078 17.9688 359.078 17.4297V13.498H357.924V12.6602H359.078V11.125H360.162ZM369.508 19C369.445 18.875 369.395 18.6523 369.355 18.332C368.852 18.8555 368.25 19.1172 367.551 19.1172C366.926 19.1172 366.412 18.9414 366.01 18.5898C365.611 18.2344 365.412 17.7852 365.412 17.2422C365.412 16.582 365.662 16.0703 366.162 15.707C366.666 15.3398 367.373 15.1562 368.283 15.1562H369.338V14.6582C369.338 14.2793 369.225 13.9785 368.998 13.7559C368.771 13.5293 368.438 13.416 367.996 13.416C367.609 13.416 367.285 13.5137 367.023 13.709C366.762 13.9043 366.631 14.1406 366.631 14.418H365.541C365.541 14.1016 365.652 13.7969 365.875 13.5039C366.102 13.207 366.406 12.9727 366.789 12.8008C367.176 12.6289 367.6 12.543 368.061 12.543C368.791 12.543 369.363 12.7266 369.777 13.0938C370.191 13.457 370.406 13.959 370.422 14.5996V17.5176C370.422 18.0996 370.496 18.5625 370.645 18.9062V19H369.508ZM367.709 18.1738C368.049 18.1738 368.371 18.0859 368.676 17.9102C368.98 17.7344 369.201 17.5059 369.338 17.2246V15.9238H368.488C367.16 15.9238 366.496 16.3125 366.496 17.0898C366.496 17.4297 366.609 17.6953 366.836 17.8867C367.062 18.0781 367.354 18.1738 367.709 18.1738ZM374.664 18.2324C375.051 18.2324 375.389 18.1152 375.678 17.8809C375.967 17.6465 376.127 17.3535 376.158 17.002H377.184C377.164 17.3652 377.039 17.7109 376.809 18.0391C376.578 18.3672 376.27 18.6289 375.883 18.8242C375.5 19.0195 375.094 19.1172 374.664 19.1172C373.801 19.1172 373.113 18.8301 372.602 18.2559C372.094 17.6777 371.84 16.8887 371.84 15.8887V15.707C371.84 15.0898 371.953 14.541 372.18 14.0605C372.406 13.5801 372.73 13.207 373.152 12.9414C373.578 12.6758 374.08 12.543 374.658 12.543C375.369 12.543 375.959 12.7559 376.428 13.1816C376.9 13.6074 377.152 14.1602 377.184 14.8398H376.158C376.127 14.4297 375.971 14.0938 375.689 13.832C375.412 13.5664 375.068 13.4336 374.658 13.4336C374.107 13.4336 373.68 13.6328 373.375 14.0312C373.074 14.4258 372.924 14.998 372.924 15.748V15.9531C372.924 16.6836 373.074 17.2461 373.375 17.6406C373.676 18.0352 374.105 18.2324 374.664 18.2324ZM379.873 11.125V12.6602H381.057V13.498H379.873V17.4297C379.873 17.6836 379.926 17.875 380.031 18.0039C380.137 18.1289 380.316 18.1914 380.57 18.1914C380.695 18.1914 380.867 18.168 381.086 18.1211V19C380.801 19.0781 380.523 19.1172 380.254 19.1172C379.77 19.1172 379.404 18.9707 379.158 18.6777C378.912 18.3848 378.789 17.9688 378.789 17.4297V13.498H377.635V12.6602H378.789V11.125H379.873ZM383.506 19H382.422V12.6602H383.506V19ZM382.334 10.9785C382.334 10.8027 382.387 10.6543 382.492 10.5332C382.602 10.4121 382.762 10.3516 382.973 10.3516C383.184 10.3516 383.344 10.4121 383.453 10.5332C383.562 10.6543 383.617 10.8027 383.617 10.9785C383.617 11.1543 383.562 11.3008 383.453 11.418C383.344 11.5352 383.184 11.5938 382.973 11.5938C382.762 11.5938 382.602 11.5352 382.492 11.418C382.387 11.3008 382.334 11.1543 382.334 10.9785ZM384.959 15.7715C384.959 15.1504 385.08 14.5918 385.322 14.0957C385.568 13.5996 385.908 13.2168 386.342 12.9473C386.779 12.6777 387.277 12.543 387.836 12.543C388.699 12.543 389.396 12.8418 389.928 13.4395C390.463 14.0371 390.73 14.832 390.73 15.8242V15.9004C390.73 16.5176 390.611 17.0723 390.373 17.5645C390.139 18.0527 389.801 18.4336 389.359 18.707C388.922 18.9805 388.418 19.1172 387.848 19.1172C386.988 19.1172 386.291 18.8184 385.756 18.2207C385.225 17.623 384.959 16.832 384.959 15.8477V15.7715ZM386.049 15.9004C386.049 16.6035 386.211 17.168 386.535 17.5938C386.863 18.0195 387.301 18.2324 387.848 18.2324C388.398 18.2324 388.836 18.0176 389.16 17.5879C389.484 17.1543 389.646 16.5488 389.646 15.7715C389.646 15.0762 389.48 14.5137 389.148 14.084C388.82 13.6504 388.383 13.4336 387.836 13.4336C387.301 13.4336 386.869 13.6465 386.541 14.0723C386.213 14.498 386.049 15.1074 386.049 15.9004ZM393.115 12.6602L393.15 13.457C393.635 12.8477 394.268 12.543 395.049 12.543C396.389 12.543 397.064 13.2988 397.076 14.8105V19H395.992V14.8047C395.988 14.3477 395.883 14.0098 395.676 13.791C395.473 13.5723 395.154 13.4629 394.721 13.4629C394.369 13.4629 394.061 13.5566 393.795 13.7441C393.529 13.9316 393.322 14.1777 393.174 14.4824V19H392.09V12.6602H393.115ZM402.402 17.3184C402.402 17.0254 402.291 16.7988 402.068 16.6387C401.85 16.4746 401.465 16.334 400.914 16.2168C400.367 16.0996 399.932 15.959 399.607 15.7949C399.287 15.6309 399.049 15.4355 398.893 15.209C398.74 14.9824 398.664 14.7129 398.664 14.4004C398.664 13.8809 398.883 13.4414 399.32 13.082C399.762 12.7227 400.324 12.543 401.008 12.543C401.727 12.543 402.309 12.7285 402.754 13.0996C403.203 13.4707 403.428 13.9453 403.428 14.5234H402.338C402.338 14.2266 402.211 13.9707 401.957 13.7559C401.707 13.541 401.391 13.4336 401.008 13.4336C400.613 13.4336 400.305 13.5195 400.082 13.6914C399.859 13.8633 399.748 14.0879 399.748 14.3652C399.748 14.627 399.852 14.8242 400.059 14.957C400.266 15.0898 400.639 15.2168 401.178 15.3379C401.721 15.459 402.16 15.6035 402.496 15.7715C402.832 15.9395 403.08 16.1426 403.24 16.3809C403.404 16.6152 403.486 16.9023 403.486 17.2422C403.486 17.8086 403.26 18.2637 402.807 18.6074C402.354 18.9473 401.766 19.1172 401.043 19.1172C400.535 19.1172 400.086 19.0273 399.695 18.8477C399.305 18.668 398.998 18.418 398.775 18.0977C398.557 17.7734 398.447 17.4238 398.447 17.0488H399.531C399.551 17.4121 399.695 17.7012 399.965 17.916C400.238 18.127 400.598 18.2324 401.043 18.2324C401.453 18.2324 401.781 18.1504 402.027 17.9863C402.277 17.8184 402.402 17.5957 402.402 17.3184Z" fill="#666666"/>
<path d="M122.047 16.293C121.941 17.1953 121.607 17.8926 121.045 18.3848C120.486 18.873 119.742 19.1172 118.812 19.1172C117.805 19.1172 116.996 18.7559 116.387 18.0332C115.781 17.3105 115.479 16.3438 115.479 15.1328V14.3125C115.479 13.5195 115.619 12.8223 115.9 12.2207C116.186 11.6191 116.588 11.1582 117.107 10.8379C117.627 10.5137 118.229 10.3516 118.912 10.3516C119.818 10.3516 120.545 10.6055 121.092 11.1133C121.639 11.6172 121.957 12.3164 122.047 13.2109H120.916C120.818 12.5312 120.605 12.0391 120.277 11.7344C119.953 11.4297 119.498 11.2773 118.912 11.2773C118.193 11.2773 117.629 11.543 117.219 12.0742C116.812 12.6055 116.609 13.3613 116.609 14.3418V15.168C116.609 16.0938 116.803 16.8301 117.189 17.377C117.576 17.9238 118.117 18.1973 118.812 18.1973C119.438 18.1973 119.916 18.0566 120.248 17.7754C120.584 17.4902 120.807 16.9961 120.916 16.293H122.047ZM123.131 15.7715C123.131 15.1504 123.252 14.5918 123.494 14.0957C123.74 13.5996 124.08 13.2168 124.514 12.9473C124.951 12.6777 125.449 12.543 126.008 12.543C126.871 12.543 127.568 12.8418 128.1 13.4395C128.635 14.0371 128.902 14.832 128.902 15.8242V15.9004C128.902 16.5176 128.783 17.0723 128.545 17.5645C128.311 18.0527 127.973 18.4336 127.531 18.707C127.094 18.9805 126.59 19.1172 126.02 19.1172C125.16 19.1172 124.463 18.8184 123.928 18.2207C123.396 17.623 123.131 16.832 123.131 15.8477V15.7715ZM124.221 15.9004C124.221 16.6035 124.383 17.168 124.707 17.5938C125.035 18.0195 125.473 18.2324 126.02 18.2324C126.57 18.2324 127.008 18.0176 127.332 17.5879C127.656 17.1543 127.818 16.5488 127.818 15.7715C127.818 15.0762 127.652 14.5137 127.32 14.084C126.992 13.6504 126.555 13.4336 126.008 13.4336C125.473 13.4336 125.041 13.6465 124.713 14.0723C124.385 14.498 124.221 15.1074 124.221 15.9004ZM131.439 19H130.355V10H131.439V19ZM137.094 18.373C136.672 18.8691 136.053 19.1172 135.236 19.1172C134.561 19.1172 134.045 18.9219 133.689 18.5312C133.338 18.1367 133.16 17.5547 133.156 16.7852V12.6602H134.24V16.7559C134.24 17.7168 134.631 18.1973 135.412 18.1973C136.24 18.1973 136.791 17.8887 137.064 17.2715V12.6602H138.148V19H137.117L137.094 18.373ZM140.82 12.6602L140.85 13.3633C141.314 12.8164 141.941 12.543 142.73 12.543C143.617 12.543 144.221 12.8828 144.541 13.5625C144.752 13.2578 145.025 13.0117 145.361 12.8242C145.701 12.6367 146.102 12.543 146.562 12.543C147.953 12.543 148.66 13.2793 148.684 14.752V19H147.6V14.8164C147.6 14.3633 147.496 14.0254 147.289 13.8027C147.082 13.5762 146.734 13.4629 146.246 13.4629C145.844 13.4629 145.51 13.584 145.244 13.8262C144.979 14.0645 144.824 14.3867 144.781 14.793V19H143.691V14.8457C143.691 13.9238 143.24 13.4629 142.338 13.4629C141.627 13.4629 141.141 13.7656 140.879 14.3711V19H139.795V12.6602H140.82ZM151.35 12.6602L151.385 13.457C151.869 12.8477 152.502 12.543 153.283 12.543C154.623 12.543 155.299 13.2988 155.311 14.8105V19H154.227V14.8047C154.223 14.3477 154.117 14.0098 153.91 13.791C153.707 13.5723 153.389 13.4629 152.955 13.4629C152.604 13.4629 152.295 13.5566 152.029 13.7441C151.764 13.9316 151.557 14.1777 151.408 14.4824V19H150.324V12.6602H151.35ZM162.014 17.5293L163.584 12.6602H164.691L162.418 19H161.592L159.295 12.6602H160.402L162.014 17.5293ZM166.912 19H165.828V12.6602H166.912V19ZM165.74 10.9785C165.74 10.8027 165.793 10.6543 165.898 10.5332C166.008 10.4121 166.168 10.3516 166.379 10.3516C166.59 10.3516 166.75 10.4121 166.859 10.5332C166.969 10.6543 167.023 10.8027 167.023 10.9785C167.023 11.1543 166.969 11.3008 166.859 11.418C166.75 11.5352 166.59 11.5938 166.379 11.5938C166.168 11.5938 166.008 11.5352 165.898 11.418C165.793 11.3008 165.74 11.1543 165.74 10.9785ZM171.283 19.1172C170.424 19.1172 169.725 18.8359 169.186 18.2734C168.646 17.707 168.377 16.9512 168.377 16.0059V15.8066C168.377 15.1777 168.496 14.6172 168.734 14.125C168.977 13.6289 169.312 13.2422 169.742 12.9648C170.176 12.6836 170.645 12.543 171.148 12.543C171.973 12.543 172.613 12.8145 173.07 13.3574C173.527 13.9004 173.756 14.6777 173.756 15.6895V16.1406H169.461C169.477 16.7656 169.658 17.2715 170.006 17.6582C170.357 18.041 170.803 18.2324 171.342 18.2324C171.725 18.2324 172.049 18.1543 172.314 17.998C172.58 17.8418 172.812 17.6348 173.012 17.377L173.674 17.8926C173.143 18.709 172.346 19.1172 171.283 19.1172ZM171.148 13.4336C170.711 13.4336 170.344 13.5938 170.047 13.9141C169.75 14.2305 169.566 14.6758 169.496 15.25H172.672V15.168C172.641 14.6172 172.492 14.1914 172.227 13.8906C171.961 13.5859 171.602 13.4336 171.148 13.4336ZM180.629 17.5059L181.848 12.6602H182.932L181.086 19H180.207L178.666 14.1953L177.166 19H176.287L174.447 12.6602H175.525L176.773 17.4062L178.25 12.6602H179.123L180.629 17.5059Z" fill="#666666"/>
</g>
<defs>
<filter id="filter0_d_1_187" x="0" y="0" width="91" height="32" filterUnits="userSpaceOnUse" color-interpolation-filters="sRGB">
<feFlood flood-opacity="0" result="BackgroundImageFix"/>
<feColorMatrix in="SourceAlpha" type="matrix" values="0 0 0 0 0 0 0 0 0 0 0 0 0 0 0 0 0 0 127 0" result="hardAlpha"/>
<feOffset dy="2"/>
<feColorMatrix type="matrix" values="0 0 0 0 0 0 0 0 0 0 0 0 0 0 0 0 0 0 0.043 0"/>
<feBlend mode="normal" in2="BackgroundImageFix" result="effect1_dropShadow_1_187"/>
<feBlend mode="normal" in="SourceGraphic" in2="effect1_dropShadow_1_187" result="shape"/>
</filter>
<clipPath id="clip0_1_187">
<rect width="560" height="30" fill="white"/>
</clipPath>
</defs>
</svg>
